<?xml version="1.0" encoding="UTF-8"?>
<svg width="1024" height="1024" viewBox="0 0 1024 1024" fill="none" xmlns="http://www.w3.org/2000/svg">
  <!-- AI Whisper Brain/Neural Network Icon - Light Version (for Dark Theme) -->
  <g transform="translate(512, 512)">
    <!-- Head/Top Section -->
    <circle cx="-80" cy="-200" r="32" fill="#ffffff"/>
    <circle cx="80" cy="-200" r="32" fill="#ffffff"/>
    <path d="M -80 -200 Q 0 -260 80 -200" stroke="#ffffff" stroke-width="24" fill="none" stroke-linecap="round"/>
    
    <!-- Center Body -->
    <ellipse cx="0" cy="-100" rx="60" ry="140" fill="#ffffff"/>
    
    <!-- Left Wing - Neural Network Pattern -->
    <path d="M -60 -120 Q -200 -80 -240 0 Q -200 80 -60 120 Z" fill="none" stroke="#e4e4e7" stroke-width="28" stroke-linejoin="round"/>
    <!-- Left wing nodes -->
    <circle cx="-140" cy="-60" r="20" fill="#e4e4e7"/>
    <circle cx="-180" cy="0" r="20" fill="#e4e4e7"/>
    <circle cx="-140" cy="60" r="20" fill="#e4e4e7"/>
    <!-- Left wing connections -->
    <line x1="-140" y1="-60" x2="-180" y2="0" stroke="#d4d4d8" stroke-width="12"/>
    <line x1="-180" y1="0" x2="-140" y2="60" stroke="#d4d4d8" stroke-width="12"/>
    <line x1="-140" y1="-60" x2="-140" y2="60" stroke="#d4d4d8" stroke-width="10" opacity="0.5"/>
    
    <!-- Right Wing - Circuit Pattern -->
    <path d="M 60 -120 Q 200 -80 240 0 Q 200 80 60 120 Z" fill="none" stroke="#e4e4e7" stroke-width="28" stroke-linejoin="round"/>
    <!-- Right wing circuit -->
    <circle cx="140" cy="-40" r="18" fill="#e4e4e7"/>
    <circle cx="180" cy="0" r="18" fill="#e4e4e7"/>
    <circle cx="140" cy="40" r="18" fill="#e4e4e7"/>
    <!-- Right wing circuit connections -->
    <path d="M 140 -40 L 180 0 L 140 40" stroke="#d4d4d8" stroke-width="12" fill="none"/>
    <line x1="140" y1="-40" x2="140" y2="40" stroke="#d4d4d8" stroke-width="10" opacity="0.5"/>
    
    <!-- Connection dots to body -->
    <circle cx="0" cy="-50" r="16" fill="#ffffff"/>
    <circle cx="0" cy="50" r="16" fill="#ffffff"/>
  </g>
</svg>

